<svg width="47" height="44" viewBox="0 0 47 44" fill="none" xmlns="http://www.w3.org/2000/svg">
<rect width="47" height="44" fill="#EEEEEE"/>
<path d="M28.5833 15.7778V21.1767L28.1667 21.2222V15C26.5437 15.0463 25.0396 15.2963 23.9992 15.9007C22.9592 15.2963 21.4567 15.0463 19.8333 15V21.2222L19.4167 21.1767V15.7778H19V21.6111H22.7738C23.39 21.6111 23.4575 22 23.9992 22C24.5425 22 24.6079 21.6111 25.225 21.6111H29V15.7778H28.5833ZM23.5833 21.0842C22.7725 20.7839 21.8596 20.5907 20.6667 20.5071V15.8206C21.6467 15.8972 22.7483 16.0831 23.5833 16.568V21.0842ZM27.3333 20.5071C26.1404 20.5907 25.2275 20.7839 24.4167 21.0842V16.568C25.2517 16.0831 26.3533 15.8972 27.3333 15.8206V20.5071Z" fill="black" fill-opacity="0.45"/>
<path d="M14.2841 28.0398C14.0966 28.0398 13.9295 28.0076 13.7827 27.9432C13.6368 27.8788 13.5208 27.7893 13.4347 27.6747C13.3494 27.5592 13.303 27.4252 13.2955 27.2727H13.6534C13.661 27.3665 13.6932 27.4474 13.75 27.5156C13.8068 27.5829 13.8812 27.6349 13.973 27.6719C14.0649 27.7088 14.1667 27.7273 14.2784 27.7273C14.4034 27.7273 14.5142 27.7055 14.6108 27.6619C14.7074 27.6184 14.7831 27.5578 14.8381 27.4801C14.893 27.4025 14.9205 27.3125 14.9205 27.2102C14.9205 27.1032 14.8939 27.009 14.8409 26.9276C14.7879 26.8452 14.7102 26.7808 14.608 26.7344C14.5057 26.688 14.3807 26.6648 14.233 26.6648H14V26.3523H14.233C14.3485 26.3523 14.4498 26.3314 14.5369 26.2898C14.625 26.2481 14.6937 26.1894 14.7429 26.1136C14.7931 26.0379 14.8182 25.9489 14.8182 25.8466C14.8182 25.7481 14.7964 25.6624 14.7528 25.5895C14.7093 25.5166 14.6477 25.4598 14.5682 25.419C14.4896 25.3783 14.3968 25.358 14.2898 25.358C14.1894 25.358 14.0947 25.3764 14.0057 25.4134C13.9176 25.4493 13.8456 25.5019 13.7898 25.571C13.7339 25.6392 13.7036 25.7216 13.6989 25.8182H13.358C13.3636 25.6657 13.4096 25.5322 13.4957 25.4176C13.5819 25.3021 13.6946 25.2121 13.8338 25.1477C13.974 25.0833 14.1278 25.0511 14.2955 25.0511C14.4754 25.0511 14.6297 25.0876 14.7585 25.1605C14.8873 25.2325 14.9863 25.3277 15.0554 25.446C15.1245 25.5644 15.1591 25.6922 15.1591 25.8295C15.1591 25.9934 15.116 26.133 15.0298 26.2486C14.9446 26.3641 14.8286 26.4441 14.6818 26.4886V26.5114C14.8655 26.5417 15.009 26.6198 15.1122 26.7457C15.2154 26.8707 15.267 27.0256 15.267 27.2102C15.267 27.3684 15.224 27.5104 15.1378 27.6364C15.0526 27.7614 14.9361 27.8598 14.7884 27.9318C14.6406 28.0038 14.4725 28.0398 14.2841 28.0398ZM16.4957 28.0511C16.3575 28.0511 16.232 28.0251 16.1193 27.973C16.0066 27.92 15.9171 27.8438 15.8509 27.7443C15.7846 27.6439 15.7514 27.5227 15.7514 27.3807C15.7514 27.2557 15.776 27.1544 15.8253 27.0767C15.8745 26.9981 15.9403 26.9366 16.0227 26.892C16.1051 26.8475 16.196 26.8144 16.2955 26.7926C16.3958 26.7699 16.4967 26.7519 16.598 26.7386C16.7306 26.7216 16.8381 26.7088 16.9205 26.7003C17.0038 26.6908 17.0644 26.6752 17.1023 26.6534C17.1411 26.6316 17.1605 26.5937 17.1605 26.5398V26.5284C17.1605 26.3883 17.1222 26.2794 17.0455 26.2017C16.9697 26.1241 16.8546 26.0852 16.7003 26.0852C16.5402 26.0852 16.4148 26.1203 16.3239 26.1903C16.233 26.2604 16.169 26.3352 16.1321 26.4148L15.8139 26.3011C15.8707 26.1686 15.9465 26.0653 16.0412 25.9915C16.1368 25.9167 16.241 25.8646 16.3537 25.8352C16.4673 25.8049 16.5791 25.7898 16.6889 25.7898C16.759 25.7898 16.8395 25.7983 16.9304 25.8153C17.0223 25.8314 17.1108 25.8651 17.196 25.9162C17.2822 25.9673 17.3537 26.0445 17.4105 26.1477C17.4673 26.2509 17.4957 26.3892 17.4957 26.5625V28H17.1605V27.7045H17.1435C17.1207 27.7519 17.0829 27.8026 17.0298 27.8565C16.9768 27.9105 16.9063 27.9564 16.8182 27.9943C16.7301 28.0322 16.6226 28.0511 16.4957 28.0511ZM16.5469 27.75C16.6795 27.75 16.7912 27.724 16.8821 27.6719C16.974 27.6198 17.0431 27.5526 17.0895 27.4702C17.1368 27.3878 17.1605 27.3011 17.1605 27.2102V26.9034C17.1463 26.9205 17.1151 26.9361 17.0668 26.9503C17.0194 26.9635 16.9645 26.9754 16.902 26.9858C16.8404 26.9953 16.7803 27.0038 16.7216 27.0114C16.6638 27.018 16.617 27.0237 16.581 27.0284C16.4938 27.0398 16.4124 27.0582 16.3366 27.0838C16.2618 27.1084 16.2012 27.1458 16.1548 27.196C16.1094 27.2453 16.0866 27.3125 16.0866 27.3977C16.0866 27.5142 16.1297 27.6023 16.2159 27.6619C16.303 27.7206 16.4134 27.75 16.5469 27.75ZM19.4542 25.8182V26.1307H18.4428V28H18.1076V25.8182H19.4542ZM19.9435 28.8182V25.8182H20.2674V26.1648H20.3072C20.3318 26.1269 20.3659 26.0786 20.4094 26.0199C20.454 25.9602 20.5174 25.9072 20.5998 25.8608C20.6831 25.8134 20.7958 25.7898 20.9379 25.7898C21.1216 25.7898 21.2835 25.8357 21.4237 25.9276C21.5638 26.0194 21.6732 26.1496 21.7518 26.3182C21.8304 26.4867 21.8697 26.6856 21.8697 26.9148C21.8697 27.1458 21.8304 27.3461 21.7518 27.5156C21.6732 27.6842 21.5643 27.8149 21.4251 27.9077C21.2859 27.9995 21.1254 28.0455 20.9435 28.0455C20.8034 28.0455 20.6912 28.0223 20.6069 27.9759C20.5226 27.9285 20.4577 27.875 20.4123 27.8153C20.3668 27.7547 20.3318 27.7045 20.3072 27.6648H20.2788V28.8182H19.9435ZM20.2731 26.9091C20.2731 27.0739 20.2972 27.2192 20.3455 27.3452C20.3938 27.4702 20.4644 27.5682 20.5572 27.6392C20.65 27.7093 20.7636 27.7443 20.8981 27.7443C21.0382 27.7443 21.1552 27.7074 21.2489 27.6335C21.3436 27.5587 21.4147 27.4583 21.462 27.3324C21.5103 27.2055 21.5344 27.0644 21.5344 26.9091C21.5344 26.7557 21.5108 26.6174 21.4634 26.4943C21.417 26.3703 21.3465 26.2723 21.2518 26.2003C21.158 26.1274 21.0401 26.0909 20.8981 26.0909C20.7617 26.0909 20.6471 26.1255 20.5543 26.1946C20.4615 26.2628 20.3915 26.3584 20.3441 26.4815C20.2968 26.6037 20.2731 26.7462 20.2731 26.9091ZM22.5188 28.8182C22.462 28.8182 22.4113 28.8134 22.3668 28.804C22.3223 28.7955 22.2915 28.7869 22.2745 28.7784L22.3597 28.483C22.4412 28.5038 22.5131 28.5114 22.5756 28.5057C22.6381 28.5 22.6935 28.4721 22.7418 28.4219C22.7911 28.3726 22.8361 28.2926 22.8768 28.1818L22.9393 28.0114L22.1325 25.8182H22.4961L23.0984 27.5568H23.1211L23.7234 25.8182H24.087L23.1609 28.3182C23.1192 28.4309 23.0676 28.5241 23.006 28.598C22.9445 28.6728 22.873 28.7282 22.7915 28.7642C22.7111 28.8002 22.6201 28.8182 22.5188 28.8182ZM24.3931 27.4432H24.7511C24.7586 27.5417 24.8031 27.6165 24.8846 27.6676C24.967 27.7188 25.074 27.7443 25.2056 27.7443C25.3401 27.7443 25.4551 27.7169 25.5508 27.6619C25.6464 27.6061 25.6942 27.5161 25.6942 27.392C25.6942 27.3191 25.6763 27.2557 25.6403 27.2017C25.6043 27.1468 25.5536 27.1042 25.4883 27.0739C25.4229 27.0436 25.3458 27.0284 25.2567 27.0284H24.8817V26.7273H25.2567C25.3903 26.7273 25.4888 26.697 25.5522 26.6364C25.6166 26.5758 25.6488 26.5 25.6488 26.4091C25.6488 26.3116 25.6142 26.2334 25.5451 26.1747C25.476 26.1151 25.378 26.0852 25.2511 26.0852C25.1232 26.0852 25.0167 26.1141 24.9315 26.1719C24.8462 26.2287 24.8013 26.3021 24.7965 26.392H24.4442C24.448 26.2746 24.484 26.1709 24.5522 26.081C24.6204 25.9901 24.7132 25.919 24.8306 25.8679C24.948 25.8158 25.0825 25.7898 25.234 25.7898C25.3874 25.7898 25.5205 25.8168 25.6332 25.8707C25.7468 25.9238 25.8344 25.9962 25.896 26.0881C25.9585 26.179 25.9897 26.2822 25.9897 26.3977C25.9897 26.5208 25.9551 26.6203 25.886 26.696C25.8169 26.7718 25.7302 26.8258 25.6261 26.858V26.8807C25.7085 26.8864 25.7799 26.9129 25.8406 26.9602C25.9021 27.0066 25.9499 27.0677 25.984 27.1435C26.0181 27.2183 26.0352 27.3011 26.0352 27.392C26.0352 27.5246 25.9996 27.6402 25.9286 27.7386C25.8576 27.8362 25.7601 27.9119 25.636 27.9659C25.512 28.0189 25.3704 28.0455 25.2113 28.0455C25.0569 28.0455 24.9187 28.0204 24.7965 27.9702C24.6744 27.919 24.5773 27.8485 24.5053 27.7585C24.4343 27.6676 24.3969 27.5625 24.3931 27.4432ZM26.506 28V25.8182H26.8413V26.767H27.0629L27.8469 25.8182H28.2788L27.3981 26.8693L28.2901 28H27.8583L27.1424 27.0795H26.8413V28H26.506ZM29.2965 28.0511C29.1583 28.0511 29.0328 28.0251 28.9201 27.973C28.8074 27.92 28.7179 27.8438 28.6516 27.7443C28.5853 27.6439 28.5522 27.5227 28.5522 27.3807C28.5522 27.2557 28.5768 27.1544 28.6261 27.0767C28.6753 26.9981 28.7411 26.9366 28.8235 26.892C28.9059 26.8475 28.9968 26.8144 29.0962 26.7926C29.1966 26.7699 29.2975 26.7519 29.3988 26.7386C29.5314 26.7216 29.6388 26.7088 29.7212 26.7003C29.8046 26.6908 29.8652 26.6752 29.9031 26.6534C29.9419 26.6316 29.9613 26.5937 29.9613 26.5398V26.5284C29.9613 26.3883 29.9229 26.2794 29.8462 26.2017C29.7705 26.1241 29.6554 26.0852 29.5011 26.0852C29.341 26.0852 29.2156 26.1203 29.1246 26.1903C29.0337 26.2604 28.9698 26.3352 28.9329 26.4148L28.6147 26.3011C28.6715 26.1686 28.7473 26.0653 28.842 25.9915C28.9376 25.9167 29.0418 25.8646 29.1545 25.8352C29.2681 25.8049 29.3799 25.7898 29.4897 25.7898C29.5598 25.7898 29.6403 25.7983 29.7312 25.8153C29.823 25.8314 29.9116 25.8651 29.9968 25.9162C30.083 25.9673 30.1545 26.0445 30.2113 26.1477C30.2681 26.2509 30.2965 26.3892 30.2965 26.5625V28H29.9613V27.7045H29.9442C29.9215 27.7519 29.8836 27.8026 29.8306 27.8565C29.7776 27.9105 29.707 27.9564 29.619 27.9943C29.5309 28.0322 29.4234 28.0511 29.2965 28.0511ZM29.3477 27.75C29.4802 27.75 29.592 27.724 29.6829 27.6719C29.7747 27.6198 29.8439 27.5526 29.8903 27.4702C29.9376 27.3878 29.9613 27.3011 29.9613 27.2102V26.9034C29.9471 26.9205 29.9158 26.9361 29.8675 26.9503C29.8202 26.9635 29.7653 26.9754 29.7028 26.9858C29.6412 26.9953 29.5811 27.0038 29.5224 27.0114C29.4646 27.018 29.4177 27.0237 29.3817 27.0284C29.2946 27.0398 29.2132 27.0582 29.1374 27.0838C29.0626 27.1084 29.002 27.1458 28.9556 27.196C28.9102 27.2453 28.8874 27.3125 28.8874 27.3977C28.8874 27.5142 28.9305 27.6023 29.0167 27.6619C29.1038 27.7206 29.2141 27.75 29.3477 27.75ZM31.1527 28.0227C31.0826 28.0227 31.0225 27.9976 30.9723 27.9474C30.9221 27.8973 30.897 27.8371 30.897 27.767C30.897 27.697 30.9221 27.6368 30.9723 27.5866C31.0225 27.5365 31.0826 27.5114 31.1527 27.5114C31.2228 27.5114 31.2829 27.5365 31.3331 27.5866C31.3833 27.6368 31.4084 27.697 31.4084 27.767C31.4084 27.8134 31.3965 27.8561 31.3729 27.8949C31.3501 27.9337 31.3194 27.965 31.2805 27.9886C31.2427 28.0114 31.2 28.0227 31.1527 28.0227ZM32.2543 28.0227C32.1842 28.0227 32.1241 27.9976 32.0739 27.9474C32.0237 27.8973 31.9986 27.8371 31.9986 27.767C31.9986 27.697 32.0237 27.6368 32.0739 27.5866C32.1241 27.5365 32.1842 27.5114 32.2543 27.5114C32.3243 27.5114 32.3845 27.5365 32.4347 27.5866C32.4848 27.6368 32.5099 27.697 32.5099 27.767C32.5099 27.8134 32.4981 27.8561 32.4744 27.8949C32.4517 27.9337 32.4209 27.965 32.3821 27.9886C32.3442 28.0114 32.3016 28.0227 32.2543 28.0227ZM33.3558 28.0227C33.2857 28.0227 33.2256 27.9976 33.1754 27.9474C33.1252 27.8973 33.1001 27.8371 33.1001 27.767C33.1001 27.697 33.1252 27.6368 33.1754 27.5866C33.2256 27.5365 33.2857 27.5114 33.3558 27.5114C33.4259 27.5114 33.486 27.5365 33.5362 27.5866C33.5864 27.6368 33.6115 27.697 33.6115 27.767C33.6115 27.8134 33.5997 27.8561 33.576 27.8949C33.5533 27.9337 33.5225 27.965 33.4837 27.9886C33.4458 28.0114 33.4032 28.0227 33.3558 28.0227Z" fill="#838383"/>
</svg>
